<svg width="21" height="20" viewBox="0 0 21 20" fill="none" xmlns="http://www.w3.org/2000/svg">
<path d="M4.93262 15.6923H1.43262C1.22012 15.6923 1.04195 15.6203 0.898117 15.4765C0.754451 15.3327 0.682617 15.1545 0.682617 14.942C0.682617 14.7293 0.754451 14.5513 0.898117 14.4078C1.04195 14.2641 1.22012 14.1923 1.43262 14.1923H4.93262C5.14512 14.1923 5.3232 14.2642 5.46687 14.408C5.6107 14.5518 5.68262 14.7301 5.68262 14.9427C5.68262 15.1552 5.6107 15.3333 5.46687 15.477C5.3232 15.6205 5.14512 15.6923 4.93262 15.6923ZM7.93262 11.8077H3.43262C3.22012 11.8077 3.04195 11.7358 2.89812 11.592C2.75445 11.4482 2.68262 11.2699 2.68262 11.0573C2.68262 10.8448 2.75445 10.6667 2.89812 10.523C3.04195 10.3795 3.22012 10.3077 3.43262 10.3077H7.93262C8.14512 10.3077 8.3232 10.3797 8.46687 10.5235C8.6107 10.6673 8.68262 10.8455 8.68262 11.058C8.68262 11.2707 8.6107 11.4488 8.46687 11.5922C8.3232 11.7359 8.14512 11.8077 7.93262 11.8077ZM5.27862 19.5C4.84245 19.5 4.46903 19.3554 4.15837 19.0663C3.84753 18.7773 3.69212 18.4218 3.69212 18L4.77862 17.8845H4.92287C5.7402 17.8845 6.43495 17.5985 7.00712 17.0265C7.57928 16.4543 7.86537 15.7596 7.86537 14.9423C7.86537 14.7696 7.85053 14.6047 7.82087 14.4475C7.7912 14.2905 7.75412 14.1413 7.70962 14H7.92287C8.7402 14 9.43495 13.7142 10.0071 13.1427C10.5793 12.5712 10.8654 11.8772 10.8654 11.0608C10.8654 10.2279 10.5817 9.52883 10.0144 8.9635C9.44703 8.39817 8.75312 8.1155 7.93262 8.1155H4.83637L5.08637 6C5.1467 5.532 5.34253 5.165 5.67387 4.899C6.00537 4.633 6.39287 4.5 6.83637 4.5H8.68262L8.71137 4.25C8.8447 3.0705 9.2532 2.15067 9.93687 1.4905C10.6205 0.830167 11.5518 0.5 12.7306 0.5C13.7524 0.5 14.5951 0.883001 15.2586 1.649C15.922 2.415 16.2261 3.31408 16.1711 4.34625L16.1519 4.5H18.7211C19.2441 4.51033 19.68 4.71167 20.0286 5.104C20.3775 5.49617 20.5165 5.95383 20.4459 6.477L19.0361 17.8615C18.9735 18.3358 18.7639 18.7275 18.4074 19.0365C18.051 19.3455 17.6352 19.5 17.1599 19.5H5.27862ZM10.1826 4.5H14.6671L14.6864 4.34625C14.7287 3.71292 14.538 3.1635 14.1144 2.698C13.6905 2.23267 13.1652 2 12.5384 2C11.8524 2 11.313 2.19842 10.9201 2.59525C10.5271 2.99208 10.2909 3.54367 10.2114 4.25L10.1826 4.5Z" fill="#0080BC"/>
</svg>
