<svg width="16" height="15" viewBox="0 0 16 15" fill="none" xmlns="http://www.w3.org/2000/svg">
<path d="M3.95195 14.5C3.73912 14.5 3.56087 14.4282 3.4172 14.2845C3.2737 14.141 3.20195 13.9628 3.20195 13.75C3.20195 13.5372 3.2737 13.359 3.4172 13.2155C3.56087 13.0718 3.73912 13 3.95195 13H10.3787C11.4224 13 12.3205 12.6554 13.073 11.9663C13.8256 11.2773 14.202 10.4263 14.202 9.4135C14.202 8.40067 13.8256 7.55125 13.073 6.86525C12.3205 6.17942 11.4224 5.8365 10.3787 5.8365H3.3577L5.61345 8.09225C5.75829 8.23725 5.8307 8.41292 5.8307 8.61925C5.8307 8.82559 5.75829 9.00125 5.61345 9.14625C5.46862 9.29109 5.29137 9.36192 5.0817 9.35875C4.87204 9.35542 4.69804 9.28459 4.5597 9.14625L1.1327 5.71925C1.03904 5.62559 0.973036 5.52684 0.934703 5.423C0.896203 5.31917 0.876953 5.207 0.876953 5.0865C0.876953 4.966 0.896203 4.85384 0.934703 4.75C0.973036 4.64617 1.03904 4.54742 1.1327 4.45375L4.5597 1.027C4.70454 0.88217 4.88012 0.809753 5.08645 0.809753C5.29295 0.809753 5.46862 0.88217 5.61345 1.027C5.75829 1.17184 5.82912 1.34909 5.82595 1.55875C5.82279 1.76825 5.75195 1.94225 5.61345 2.08075L3.3577 4.3365H10.3787C11.8415 4.3365 13.0945 4.82467 14.1375 5.801C15.1805 6.77734 15.702 7.9815 15.702 9.4135C15.702 10.8455 15.1805 12.0513 14.1375 13.0308C13.0945 14.0103 11.8415 14.5 10.3787 14.5H3.95195Z" fill="#0080BC"/>
</svg>
