<svg width="19" height="19" viewBox="0 0 19 19" fill="none" xmlns="http://www.w3.org/2000/svg">
<path d="M5.99985 5.75H13.9999C14.2124 5.75 14.3904 5.67808 14.5341 5.53425C14.6779 5.39042 14.7499 5.21225 14.7499 4.99975C14.7499 4.78708 14.6779 4.609 14.5341 4.4655C14.3904 4.32183 14.2124 4.25 13.9999 4.25H5.99985C5.78735 4.25 5.60927 4.32192 5.4656 4.46575C5.32177 4.60958 5.24985 4.78775 5.24985 5.00025C5.24985 5.21292 5.32177 5.391 5.4656 5.5345C5.60927 5.67817 5.78735 5.75 5.99985 5.75ZM8.8651 17.5C8.6091 17.5 8.39452 17.4133 8.22135 17.24C8.04802 17.0668 7.96135 16.8522 7.96135 16.596V13.75H10.9999C11.2124 13.75 11.3904 13.6781 11.5341 13.5343C11.6779 13.3904 11.7499 13.2122 11.7499 12.9998C11.7499 12.7871 11.6779 12.609 11.5341 12.4655C11.3904 12.3218 11.2124 12.25 10.9999 12.25H7.96135V9.75H13.9999C14.2124 9.75 14.3904 9.67808 14.5341 9.53425C14.6779 9.39042 14.7499 9.21225 14.7499 8.99975C14.7499 8.78708 14.6779 8.609 14.5341 8.4655C14.3904 8.32183 14.2124 8.25 13.9999 8.25H7.77685V8.2655C7.55368 7.66933 7.1801 7.17792 6.6561 6.79125C6.13227 6.40475 5.53527 6.2115 4.8651 6.2115H2.40385C2.14769 6.2115 1.93302 6.12492 1.75985 5.95175C1.58652 5.77842 1.49985 5.56375 1.49985 5.30775V2.30775C1.49985 1.80258 1.67485 1.375 2.02485 1.025C2.37485 0.675 2.80244 0.5 3.3076 0.5H16.6921C17.1973 0.5 17.6249 0.675 17.9749 1.025C18.3249 1.375 18.4999 1.80258 18.4999 2.30775V15.6923C18.4999 16.1974 18.3249 16.625 17.9749 16.975C17.6249 17.325 17.1973 17.5 16.6921 17.5H8.8651ZM1.24985 18.5C1.03735 18.5 0.859268 18.4281 0.715602 18.2843C0.571768 18.1404 0.499852 17.9622 0.499852 17.7498C0.499852 17.5371 0.571768 17.359 0.715602 17.2155C0.859268 17.0718 1.03735 17 1.24985 17H3.12685C2.32685 16.6552 1.67619 16.1166 1.17485 15.3842C0.673518 14.6519 0.422852 13.8219 0.422852 12.8942C0.422852 11.6496 0.861018 10.59 1.73735 9.7155C2.61369 8.84117 3.67552 8.404 4.92285 8.404C5.13535 8.404 5.31352 8.47583 5.45735 8.6195C5.60102 8.76333 5.67285 8.94158 5.67285 9.15425C5.67285 9.36675 5.60102 9.54483 5.45735 9.6885C5.31352 9.832 5.13535 9.90375 4.92285 9.90375C4.09602 9.90375 3.38935 10.1945 2.80285 10.776C2.21618 11.3573 1.92285 12.067 1.92285 12.905C1.92285 13.6155 2.14369 14.244 2.58535 14.7905C3.02702 15.337 3.58827 15.6832 4.2691 15.829V13.9808C4.2691 13.7682 4.34102 13.5902 4.48485 13.4465C4.62868 13.3027 4.80685 13.2308 5.01935 13.2308C5.23202 13.2308 5.4101 13.3027 5.5536 13.4465C5.69727 13.5902 5.7691 13.7682 5.7691 13.9808V17.596C5.7691 17.8522 5.68244 18.0668 5.5091 18.24C5.33594 18.4133 5.12127 18.5 4.8651 18.5H1.24985Z" fill="#0080BC"/>
</svg>
